<svg width="26" height="21" viewBox="0 0 26 21" fill="none" xmlns="http://www.w3.org/2000/svg">
<path fill-rule="evenodd" clip-rule="evenodd" d="M11.8024 0.836605C11.5477 0.688789 11.2216 0.777286 11.0745 1.03727L6.96554 8.31719H0.881931C0.713547 8.31719 0.554803 8.39811 0.453553 8.53404C0.353402 8.67103 0.322482 8.84798 0.371484 9.01086L3.11224 18.2618C3.45325 19.4118 4.47944 20.1843 5.66437 20.1843H20.6086C21.7936 20.1843 22.8198 19.4118 23.1597 18.2629L25.9005 9.01192C25.9496 8.84904 25.9186 8.67103 25.8185 8.5351C25.7183 8.3981 25.5595 8.31719 25.3912 8.31719H19.3076L15.1986 1.03727C15.0494 0.777286 14.7222 0.688789 14.4707 0.836605C14.2139 0.984422 14.1255 1.31343 14.2715 1.57235L18.0785 8.31719H8.19465L12.0017 1.57235C12.1466 1.31343 12.0581 0.984371 11.8024 0.836605ZM22.14 17.9522C21.9343 18.6416 21.3194 19.1055 20.6076 19.1055H5.66442C4.95258 19.1055 4.33773 18.6416 4.13313 17.9522L1.59803 9.396H24.6751L22.14 17.9522Z" fill="white"/>
</svg>
